<svg xmlns="http://www.w3.org/2000/svg" viewBox="0 0 512 512" fill="#fff"><path d="M256 50C142.229 50 50 142.229 50 256s92.229 206 206 206 206-92.229 206-206S369.771 50 256 50zm0 385.863c-99.397 0-179.863-80.577-179.863-179.864 0-99.396 80.574-179.863 179.863-179.863 99.396 0 179.863 80.575 179.863 179.863 0 99.397-80.576 179.864-179.863 179.864zm0-339.637c-88.241 0-159.774 71.533-159.774 159.774S167.759 415.774 256 415.774 415.774 344.241 415.774 256 344.241 96.226 256 96.226zm1.901 275.954c-13.661 0-24.739-11.079-24.739-24.743 0-13.66 11.078-24.735 24.739-24.735 13.665 0 24.74 11.075 24.74 24.735.001 13.664-11.075 24.743-24.74 24.743zm19.452-73.127v4.45H236.57v-4.45c0-12.594 1.839-28.748 16.459-42.793 14.622-14.047 32.894-25.65 32.894-43.198 0-19.399-13.464-29.659-30.438-29.659-28.284 0-30.133 29.335-30.829 35.793h-39.665c1.056-30.589 13.984-73.373 70.732-73.373 49.178 0 71.289 32.936 71.289 63.822-.001 49.161-49.659 57.701-49.659 89.408z"/></svg>