<svg xmlns="http://www.w3.org/2000/svg" viewBox="0 0 512 512" fill="#fff"><path d="M256 50C142.229 50 50 142.229 50 256s92.229 206 206 206 206-92.229 206-206S369.771 50 256 50zm2.25 342.9c-16.162 0-29.27-13.107-29.27-29.275 0-16.16 13.107-29.263 29.27-29.263 16.166 0 29.27 13.103 29.27 29.263 0 16.168-13.104 29.275-29.27 29.275zm23.012-86.515v5.266h-48.248v-5.266c0-14.898 2.174-34.012 19.471-50.628 17.299-16.619 38.916-30.346 38.916-51.106 0-22.95-15.928-35.09-36.01-35.09-33.463 0-35.65 34.705-36.475 42.347h-46.928c1.25-36.189 16.545-86.808 83.684-86.808 58.182 0 84.34 38.967 84.34 75.508 0 58.162-58.75 68.265-58.75 105.777z"/></svg>