<svg xmlns="http://www.w3.org/2000/svg" viewBox="0 0 512 512" fill="#fff"><path d="M255.998 50.001C142.229 50.001 50 142.229 50 255.999c0 113.771 92.229 206 205.998 206 113.771 0 206.002-92.229 206.002-206 0-113.77-92.23-205.998-206.002-205.998zm5.053 72.78c18.491 0 33.479 14.991 33.479 33.479 0 18.49-14.987 33.48-33.479 33.48-18.489 0-33.479-14.99-33.479-33.48 0-18.488 14.99-33.479 33.479-33.479zm59.526 252.756H208.452v-14.68l14.043-5.177a20.001 20.001 0 0 0 13.082-18.766V257.75a20.001 20.001 0 0 0-13.082-18.766l-14.043-5.177v-15.002h84.973V336.91c0 8.38 5.225 15.871 13.088 18.768l14.064 5.18v14.679z"/></svg>