<?xml version="1.0" encoding="UTF-8" standalone="no"?>
<!DOCTYPE svg  PUBLIC '-//W3C//DTD SVG 1.1//EN'  'http://www.w3.org/Graphics/SVG/1.1/DTD/svg11.dtd'>
<svg xmlns="http://www.w3.org/2000/svg">
<defs>
<font id="Bitter-Bold" horiz-adv-x="592">
<font-face underline-position="-50" font-weight="700" descent="-200" panose-1="2 0 0 0 0 0 0 0 0 0" units-per-em="1000" unicode-range="U+0020-25CA" bbox="-47 -265 1258 957" x-height="540" underline-thickness="50" font-family="Bitter" ascent="800" cap-height="705"/>
<missing-glyph horiz-adv-x="1000"/>
<glyph glyph-name=".notdef" horiz-adv-x="1000"/>
<glyph glyph-name=".null" horiz-adv-x="0"/>
<glyph glyph-name="nonmarkingreturn" horiz-adv-x="1000"/>
<glyph glyph-name="space" horiz-adv-x="235" unicode=" "/>
<glyph glyph-name="exclam" horiz-adv-x="340" unicode="!" d="M85 78q-1 42 25 66t61 24q41 0 63 -24t21 -66q1 -42 -25 -66t-62 -25q-83 0 -83 91zM247 765l-18 -504l-120 -5l-18 509h156z"/>
<glyph glyph-name="quotedbl" horiz-adv-x="441" unicode='&quot;' d="M192 782l-22 -282h-113v282h135zM394 782l-23 -282h-113v282h136z"/>
<glyph glyph-name="numbersign" horiz-adv-x="730" unicode="#" d="M310 367l-17 -123h126l16 123h-125zM85 367v103h111l18 130h127l-18 -130h126l17 130h127l-17 -130h94v-103h-108l-16 -123h99v-103h-113l-18 -141h-127l18 141h-125l-19 -141h-127l19 141h-93v103h106l17 123h-98z"/>
<glyph glyph-name="dollar" horiz-adv-x="552" unicode="$" d="M332 -146h-107v135q-41 2 -83 10t-65 15l-22 7v177h92l15 -75q34 -18 87 -18q48 1 80 19t32 52q0 21 -17 37q-17 17 -44 27q-28 10 -60 20t-64 26t-60 36q-27 20 -44 56t-17 82q0 76 46 124t124 63v118h107v-114q38 -3 77 -12t59 -17l20 -7l-4 -164h-86l-19 74 q-42 15 -80 15q-47 0 -72 -18t-25 -45q0 -29 32 -49t76 -34t89 -34t77 -61t31 -101q1 -82 -47 -134t-128 -69v-141z"/>
<glyph glyph-name="percent" horiz-adv-x="935" unicode="%" d="M634 169q0 -96 58 -96q61 0 61 99q0 95 -59 95q-60 0 -60 -98zM519 165q0 87 51 137t129 51q77 0 123 -46t46 -131q0 -86 -51 -138t-130 -52q-77 0 -123 44t-45 135zM170 533q0 -96 58 -96q61 0 61 99q0 95 -59 95q-60 0 -60 -98zM55 529q0 87 51 137t129 51 q77 0 123 -46t46 -131q0 -86 -51 -138t-130 -52q-77 0 -123 44t-45 135zM179 -8l418 720h145l-418 -720h-145z"/>
<glyph glyph-name="ampersand" horiz-adv-x="677" unicode="&amp;" d="M432 225v92h-75q-65 0 -106 -27t-41 -81q0 -47 29 -73t79 -26q54 0 84 30t30 85zM426 517q-7 27 -16 65q-34 13 -90 13q-46 0 -70 -23t-25 -56q-1 -43 33 -67t82 -24h307v-85l-70 -23v-106q-1 -103 -73 -163t-196 -60q-127 0 -190 54t-63 146q-1 36 15 70t40 56t40 34 q17 12 32 20q-52 32 -73 59q-33 43 -33 99q0 93 68 142t184 49q52 0 112 -15t85 -27l-5 -158h-94z"/>
<glyph glyph-name="quotesingle" horiz-adv-x="240" unicode="&apos;" d="M192 782l-22 -282h-113v282h135z"/>
<glyph glyph-name="parenleft" horiz-adv-x="353" unicode="(" d="M220 770h130q-72 -110 -114 -240t-42 -248q0 -130 42 -269t113 -243h-129q-86 124 -126 242t-40 268q0 138 40 252t126 238z"/>
<glyph glyph-name="parenright" horiz-adv-x="350" unicode=")" d="M-1 770h130q86 -124 126 -238t40 -252q1 -150 -39 -269t-127 -241h-129q72 104 114 243t41 269q0 118 -42 248t-114 240z"/>
<glyph glyph-name="asterisk" horiz-adv-x="414" unicode="*" d="M146 552l-124 21l30 89l115 -45l-14 119l93 2l-9 -122l111 49l31 -90l-122 -25l82 -95l-73 -55l-65 111l-60 -111l-77 54zM146 552l45 3l10 -44l11 44l45 -5l-37 26l17 40l-36 -29l-34 30l18 -43z"/>
<glyph glyph-name="plus" horiz-adv-x="620" unicode="+" d="M42 211v118h202v204h133v-204h200v-118h-200v-211h-133v211h-202z"/>
<glyph glyph-name="comma" horiz-adv-x="303" unicode="," d="M71 79q1 41 25 65t61 24q38 0 61 -24t23 -68q0 -113 -138 -261l-63 52q60 80 60 120q0 12 -14 39t-15 53z"/>
<glyph glyph-name="hyphen" horiz-adv-x="395" unicode="-" d="M57 210v125h283v-125h-283z"/>
<glyph glyph-name="period" horiz-adv-x="300" unicode="." d="M65 78q-1 42 25 66t61 24q41 0 63 -24t21 -66q0 -42 -25 -66t-61 -25q-41 -1 -63 23t-21 68z"/>
<glyph glyph-name="slash" horiz-adv-x="516" unicode="/" d="M20 0l333 705h153l-334 -705h-152z"/>
<glyph glyph-name="zero" horiz-adv-x="645" unicode="0" d="M326 592q-56 0 -80 -53t-24 -187q0 -130 24 -185t80 -55t78 55t23 190q0 131 -22 183t-79 52zM332 717q142 1 200 -87t58 -268q0 -375 -268 -375q-138 1 -200 91t-62 269q0 182 64 276t208 94z"/>
<glyph glyph-name="one" horiz-adv-x="538" unicode="1" d="M516 115v-115h-430v115h140v430l-153 -98l-58 106l238 152h128v-590h135z"/>
<glyph glyph-name="two" horiz-adv-x="607" unicode="2" d="M557 122v-122h-517v122q78 63 119 97q41 33 91 79t72 74q23 28 39 62q16 32 16 61q0 46 -32 73t-85 27q-24 -1 -47 -5t-35 -8l-11 -5l-10 -85h-105l-5 185q113 40 220 40q129 1 201 -45t72 -152q0 -51 -18 -98q-18 -48 -58 -98t-86 -94t-121 -108h300z"/>
<glyph glyph-name="three" d="M517 537q0 -65 -32 -109t-93 -60q64 -14 102 -58t38 -100q0 -59 -24 -103q-24 -43 -66 -69t-92 -38t-105 -12q-57 0 -112 14t-81 26l-27 14l42 110q90 -42 178 -42q61 0 94 26t33 76q0 46 -37 72t-105 26h-78v105h83q130 0 130 97q0 38 -29 60t-81 23q-23 1 -47 -3 t-38 -8l-13 -4l-10 -80h-105l-5 175q123 42 223 42q257 0 257 -180z" unicode="3"/>
<glyph glyph-name="four" horiz-adv-x="627" unicode="4" d="M165 265h178v264zM595 265v-123h-100v-142h-154v142h-311l-15 118q279 411 313 460l167 -15v-440h100z"/>
<glyph glyph-name="five" horiz-adv-x="560" unicode="5" d="M17 42l43 110q90 -42 177 -42q50 0 82 26t32 74q-1 56 -47 82t-139 25h-108l17 388h410l-3 -123h-265l-7 -150q145 0 227 -54t81 -153q1 -109 -77 -173t-187 -64q-60 0 -119 14t-88 26z"/>
<glyph glyph-name="six" horiz-adv-x="617" unicode="6" d="M205 287v-24q1 -77 33 -115t83 -38q48 0 77 28t29 77q0 107 -108 107q-29 0 -57 -9t-42 -17zM510 590q-30 5 -78 5q-60 -1 -105 -21t-67 -49t-34 -58q-13 -29 -15 -49l-2 -21q71 43 156 43q96 0 158 -54t62 -156q0 -105 -75 -174t-188 -69q-130 0 -200 86t-70 222 q0 189 96 305t279 117q27 -1 49 -3t32 -4l9 -3z"/>
<glyph glyph-name="seven" horiz-adv-x="531" unicode="7" d="M5 705h510v-108l-262 -597h-165l259 580h-221l-20 -93h-101v218z"/>
<glyph glyph-name="eight" horiz-adv-x="618" unicode="8" d="M217 521q-1 -35 27 -56t81 -41q81 34 81 97q0 33 -26 53t-69 21q-44 -1 -69 -21t-25 -53zM415 202q0 38 -30 60t-90 46q-93 -42 -93 -109q0 -43 28 -66t78 -23q51 0 79 24t28 68zM556 528q0 -99 -109 -150q126 -59 126 -172q0 -98 -76 -158t-199 -61q-121 1 -187 57 t-66 148q0 105 128 169q-105 59 -105 160q0 93 68 145t185 51q113 0 174 -52t61 -137z"/>
<glyph glyph-name="nine" horiz-adv-x="617" unicode="9" d="M412 418v27q0 76 -32 113t-84 37q-48 -1 -77 -29t-29 -77q0 -51 28 -79t80 -28q28 0 56 9t44 18zM107 114q30 -4 78 -4q61 0 107 20t66 49q22 29 34 58t14 49l2 20q-71 -41 -156 -41q-96 0 -158 54t-62 155q0 106 75 174t188 69q129 1 199 -85t71 -222q0 -122 -39 -216 t-125 -150t-211 -57q-26 1 -48 3t-32 4l-10 3z"/>
<glyph glyph-name="colon" horiz-adv-x="305" unicode=":" d="M67 378q-1 42 25 66t62 25q83 0 83 -91q1 -42 -25 -66t-61 -24q-41 0 -63 24t-21 66zM67 78q-1 42 25 66t62 24q83 0 83 -90q0 -42 -25 -66t-61 -25q-41 -1 -63 23t-21 68z"/>
<glyph glyph-name="semicolon" horiz-adv-x="311" unicode=";" d="M73 378q0 42 25 66t61 25q41 1 63 -23t21 -68q1 -42 -25 -66t-61 -24q-41 0 -63 24t-21 66zM106 -185l-64 52q60 80 60 120q0 12 -14 39t-15 53q1 41 25 65t62 24t60 -24t23 -68q0 -112 -137 -261z"/>
<glyph glyph-name="less" horiz-adv-x="597" unicode="&lt;" d="M202 267l355 -145v-132l-517 218v120l517 219v-130z"/>
<glyph glyph-name="equal" horiz-adv-x="600" unicode="=" d="M50 322v115h500v-115h-500zM50 107v115h500v-115h-500z"/>
<glyph glyph-name="greater" horiz-adv-x="597" unicode="&gt;" d="M40 122l355 145l-355 150v130l517 -219v-120l-517 -218v132z"/>
<glyph glyph-name="question" horiz-adv-x="464" unicode="?" d="M236 253l-133 -6q-9 65 -9 98q0 31 26 65t58 58t58 55q26 32 27 63q0 66 -90 66q-19 0 -41 -3t-36 -5l-12 -3l-19 104q83 24 149 24q54 1 97 -13t73 -50t30 -92q0 -43 -18 -81t-46 -66q-26 -28 -52 -53q-26 -26 -46 -52q-18 -26 -18 -51zM94 78q0 42 26 66t60 24 q40 0 62 -24t22 -66t-26 -66t-61 -25q-83 0 -83 91z"/>
<glyph glyph-name="at" horiz-adv-x="820" unicode="@" d="M347 275q0 -17 11 -27t30 -10q34 0 68 34v47h-39q-70 0 -70 -44zM593 147q-85 0 -120 62l-16 -16t-41 -26t-61 -16q-53 0 -83 31t-30 84q0 119 168 119h46v34q0 47 -58 47q-20 0 -47 -4t-44 -8l-17 -5l-19 74q80 30 151 30q77 0 112 -30t35 -96v-166q0 -35 35 -35 q30 0 48 34t18 101q0 123 -66 191t-188 68q-124 0 -192 -70t-67 -200t59 -199t177 -69q29 0 61 6t48 12l16 7l41 -82l-22 -11t-59 -18t-92 -11q-164 1 -252 93t-87 267q-1 172 101 272t273 100q167 0 263 -91t96 -260q0 -103 -52 -161t-135 -58z"/>
<glyph glyph-name="A" horiz-adv-x="762" unicode="A" d="M375 529l-79 -237h154zM465 705l215 -595l70 -23v-87h-318v87l75 23l-24 75h-222l-25 -74l78 -24v-87h-302v87l73 23l220 592z"/>
<glyph glyph-name="B" horiz-adv-x="657" unicode="B" d="M267 587v-170h58q112 0 112 93q1 38 -23 58t-62 19h-85zM325 312h-58v-195h83q52 0 80 24t27 66q0 53 -32 79t-100 26zM267 705h105q100 1 160 -43t60 -130q0 -127 -120 -165q143 -41 143 -160q0 -207 -260 -207h-315v87q25 9 75 25v475l-75 30v83z"/>
<glyph glyph-name="C" horiz-adv-x="652" unicode="C" d="M484 576q-47 16 -112 16q-165 0 -165 -245q0 -230 170 -230q43 -1 91 17t74 36l25 17l55 -90q-4 -3 -12 -11t-34 -27t-56 -33q-28 -14 -72 -26t-88 -12q-152 0 -236 90t-84 264q0 175 91 275t246 100q54 1 112 -11t89 -24l32 -12l-5 -190h-98z"/>
<glyph glyph-name="D" horiz-adv-x="730" unicode="D" d="M282 587v-470h83q78 -1 120 55t42 185q1 122 -39 176t-116 54h-90zM52 0v87l75 25v475l-75 30v83l230 5h95q152 0 235 -88t83 -255q0 -168 -90 -265t-243 -97h-310z"/>
<glyph glyph-name="E" horiz-adv-x="627" unicode="E" d="M285 587v-167h202v-110h-202v-193h177l23 83h92v-200h-522v87l75 25v475l-75 30v83l230 5h280v-193h-93l-25 75h-162z"/>
<glyph glyph-name="F" horiz-adv-x="580" unicode="F" d="M367 87v-87h-322v87q25 9 75 25v475l-75 30v83l230 5h280v-190h-93l-25 72h-162v-177h207v-110h-207v-188q78 -21 92 -25z"/>
<glyph glyph-name="G" horiz-adv-x="750" unicode="G" d="M527 490l-25 86q-47 16 -113 16q-167 0 -167 -245q0 -232 170 -232q22 1 50 5t44 8l16 5v126l-75 23v82l288 5v-87l-68 -23v-204q-11 -8 -33 -19q-22 -12 -93 -30t-146 -18q-153 0 -237 90t-83 264q0 175 91 275t246 100q54 1 112 -11t90 -24l31 -12l-5 -180h-93z"/>
<glyph glyph-name="H" horiz-adv-x="792" unicode="H" d="M342 87v-87h-307v87l75 25v475l-75 30v83l307 5v-88l-77 -30v-165h262v165l-77 30v83l307 5v-88l-75 -30v-475l75 -25v-87h-307v87l77 25v193h-262v-193z"/>
<glyph glyph-name="I" horiz-adv-x="375" unicode="I" d="M340 87v-87h-305v87l75 25v475l-75 30v83l305 5v-88l-75 -30v-475z"/>
<glyph glyph-name="J" horiz-adv-x="382" unicode="J" d="M272 587v-481q0 -136 -50 -200t-178 -63l-76 7l13 100h48q88 0 88 96v541l-75 30v83l305 5v-88z"/>
<glyph glyph-name="K" horiz-adv-x="735" unicode="K" d="M347 87v-87h-307v87l75 25v475l-75 30v83l307 5v-88l-77 -30v-172h68l167 285l182 5v-88l-89 -28l-132 -218l187 -259l74 -25v-87h-307v87l58 24l-135 194h-73v-193z"/>
<glyph glyph-name="L" horiz-adv-x="540" unicode="L" d="M262 587v-470h153l22 113h95v-230h-500v87l75 25v475l-75 30v83l305 5v-88z"/>
<glyph glyph-name="M" horiz-adv-x="877" unicode="M" d="M322 87v-87h-285v87l75 25v475l-75 30v83l258 5l150 -333l157 328l240 5v-88l-72 -30v-475l75 -25v-87h-298v87l78 25v379q-17 -47 -41 -97t-54 -110t-45 -94l-108 -5l-115 237l-17 52v-362z"/>
<glyph glyph-name="N" horiz-adv-x="785" unicode="N" d="M325 87v-87h-290v87l75 25v475l-75 30v83l240 5l270 -462v344l-73 30v83l285 5v-88l-75 -30v-587h-167l-268 453v-341z"/>
<glyph glyph-name="O" horiz-adv-x="755" unicode="O" d="M380 592q-78 0 -118 -55.5t-40 -184.5q0 -123 36.5 -181.5t111.5 -58.5q79 0 120.5 57.5t41.5 187.5q0 122 -38 178.5t-114 56.5zM385 717q150 0 232.5 -93.5t82.5 -261.5q0 -169 -92.5 -272t-242.5 -103t-230 92t-80 268q0 172 88.5 271t241.5 99z"/>
<glyph glyph-name="P" horiz-adv-x="630" unicode="P" d="M272 587v-225h53q63 0 97 29t33 84q-1 50 -27 81t-76 31h-80zM347 87v-87h-305v87l75 25v475l-75 30v83l230 5h95q115 0 179 -56t64 -154q0 -124 -74 -187t-211 -63h-53v-133z"/>
<glyph glyph-name="Q" horiz-adv-x="742" unicode="Q" d="M387 592q-85 0 -126 -58t-41 -182q0 -240 157 -240q85 0 127 60t41 185q0 121 -38 178t-120 57zM542 -147l-202 136q-139 9 -212 100t-73 258q0 171 91 271t246 99q154 1 236 -93t82 -262q0 -129 -55 -221t-153 -130q8 -5 44 -29t54 -35q18 -10 46 -21t49 -11q14 1 37 9 t39 17l16 9q10 -15 29 -44t24 -36q-12 -8 -31 -20t-65 -30q-46 -20 -74 -20q-50 0 -128 53z"/>
<glyph glyph-name="R" horiz-adv-x="680" unicode="R" d="M270 587v-205h57q59 0 92 28t33 77q0 45 -27 73t-73 27h-82zM342 87v-87h-302v87l75 25v475l-75 30v83l230 5h76q124 1 192 -51t68 -153q0 -133 -113 -189q25 -29 42 -65l67 -137l68 -23v-87h-185l-84 185q-27 60 -43 76t-53 16h-35v-165z"/>
<glyph glyph-name="S" horiz-adv-x="604" unicode="S" d="M162 217l15 -84q40 -21 98 -21q51 0 86 22t35 59q0 27 -25 47t-63 31t-81 29t-81 40t-63 64t-25 101q0 101 70 157t184 55q50 0 105 -10t85 -20l30 -10l-5 -182h-92l-25 85q-45 15 -88 15q-50 0 -78 -20t-28 -51q0 -27 25 -47q25 -19 63 -31t80 -30q44 -18 82 -39t62 -62 q25 -41 25 -96q1 -109 -75 -171t-195 -61q-50 -1 -106 9t-87 20l-30 9v192h102z"/>
<glyph glyph-name="T" horiz-adv-x="600" unicode="T" d="M140 0v87l82 25v475h-95l-25 -95h-92v210l580 3v-213h-93l-25 95h-95v-475l83 -25v-87h-320z"/>
<glyph glyph-name="U" horiz-adv-x="782" unicode="U" d="M262 587v-317q0 -87 29 -123.5t101 -36.5q76 0 102 40.5t26 134.5v302l-78 30v83l308 5v-88l-75 -30v-302q0 -150 -66 -223.5t-222 -73.5q-148 0 -214 68t-66 214v317l-75 30v83l308 5v-88z"/>
<glyph glyph-name="V" horiz-adv-x="729" unicode="V" d="M277 0l-202 589l-68 28v83l310 5v-88l-74 -29l92 -289l32 -123l32 118l99 293l-76 30v83l299 5v-88l-73 -30l-211 -587h-160z"/>
<glyph glyph-name="W" horiz-adv-x="1035" unicode="W" d="M237 0l-162 588l-70 29v83l297 5v-88l-73 -30l86 -362l140 472l135 8l134 -479l96 361l-75 30v83l285 5v-88l-72 -30l-171 -587h-142l-131 475q-24 -99 -78 -277t-61 -198h-138z"/>
<glyph glyph-name="X" horiz-adv-x="740" unicode="X" d="M307 87v-87h-297v87l62 21l202 246l-186 244l-58 19v83l300 5v-88l-50 -17l103 -139l98 135l-54 21v83l288 5v-88l-66 -20l-184 -235l195 -255l70 -20v-87h-310v87l46 16l-110 150l-112 -146z"/>
<glyph glyph-name="Y" horiz-adv-x="667" unicode="Y" d="M485 87v-87h-305v87l75 25v132l-183 346l-65 27v83l283 5v-88l-51 -21l100 -217l106 216l-55 22v83l270 5v-88l-69 -27l-181 -345v-133z"/>
<glyph glyph-name="Z" horiz-adv-x="615" unicode="Z" d="M582 0h-552v102l355 485h-210l-25 -90h-95v208h530v-113l-348 -475h228l22 103h95v-220z"/>
<glyph glyph-name="bracketleft" horiz-adv-x="352" unicode="[" d="M317 -123v-102l-250 -5v1000l250 -5v-103l-119 -11v-763z"/>
<glyph glyph-name="backslash" horiz-adv-x="506" unicode="\" d="M160 705l333 -705h-152l-334 705h153z"/>
<glyph glyph-name="bracketright" horiz-adv-x="352" unicode="]" d="M32 -225v103l120 11v762l-120 11v103l250 5v-1000z"/>
<glyph glyph-name="asciicircum" horiz-adv-x="595" unicode="^" d="M295 565l-120 -245h-125l192 385h110l193 -385h-129z"/>
<glyph glyph-name="underscore" horiz-adv-x="500" unicode="_" d="M0 -180v100h500v-100h-500z"/>
<glyph glyph-name="grave" horiz-adv-x="418" unicode="`" d="M299 627l-227 112l58 109l216 -141z"/>
<glyph glyph-name="a" d="M181 162q0 -60 59 -60q24 0 50.5 14.5t41.5 29.5l15 14v67h-57q-58 0 -83.5 -15.5t-25.5 -49.5zM570 7l-198 -7l-18 65q-9 -8 -24 -20.5t-57.5 -33.5t-80.5 -21q-73 0 -114 41t-41 116q0 165 240 165h70v55q0 75 -77 75q-23 0 -45 -4t-33 -8l-10 -3l-15 -65h-90l-7 148 q121 40 217 40q114 0 161 -44.5t47 -153.5v-247l75 -18v-80z" unicode="a"/>
<glyph glyph-name="b" horiz-adv-x="595" unicode="b" d="M212 387v-274q23 -8 74 -8q119 0 119 170q0 157 -98 157q-27 0 -51 -11t-34 -23zM-10 767l222 8v-278q69 53 143 53q101 0 153 -69t52 -196q0 -143 -74 -220t-216 -77q-49 0 -100 6t-78 10l-27 6v657l-75 20v80z"/>
<glyph glyph-name="c" horiz-adv-x="515" unicode="c" d="M455 160l50 -85q-97 -85 -215 -85q-124 0 -192 72t-68 200q0 134 72 211t203 77q38 0 82 -8t69 -18l24 -9l-5 -163h-90l-14 72q-29 8 -69 8q-56 0 -86 -38t-31 -112q-1 -85 31 -130t94 -45q20 -1 38 3t35 11t27 12t26 15t19 12z"/>
<glyph glyph-name="d" horiz-adv-x="625" unicode="d" d="M380 164v256q-25 15 -78 15q-115 0 -115 -170q0 -158 96 -158q29 1 53 15t34 28zM607 7l-210 -7l-9 53q-63 -63 -151 -63q-103 0 -154 70t-51 197q0 141 72 217t211 76q33 0 65 -10v127l-80 20v80l227 8v-668l80 -20v-80z"/>
<glyph glyph-name="e" horiz-adv-x="557" unicode="e" d="M292 433q-40 0 -66 -28t-32 -75h180q0 103 -82 103zM524 240l-332 -3q4 -62 36 -96t84 -34q37 -1 79 11t65 24l24 12l43 -80q-11 -9 -31 -23q-20 -13 -80 -37t-117 -24q-127 0 -193 70t-67 200q0 134 71 212t196 78q110 0 169 -63t59 -172z"/>
<glyph glyph-name="f" horiz-adv-x="465" unicode="f" d="M142 530v45q0 98 55 155t158 57q47 1 91 -9t64 -19l20 -9l-3 -148h-87l-15 74q-25 4 -58 4q-77 0 -77 -88v-62h130l-3 -100h-127v-325l96 -25v-80h-324v80l80 25v325h-90v85z"/>
<glyph glyph-name="g" horiz-adv-x="615" unicode="g" d="M340 -20h-105q-5 -2 -13 -7t-22 -22t-13 -36q-1 -36 29 -48t96 -12q68 0 98 16t30 52q0 33 -24 45t-76 12zM297 447q-85 0 -85 -95q0 -100 80 -100q46 0 66 24t19 76q0 95 -80 95zM42 -110q0 38 26 68t52 41l27 11q-7 1 -17 4t-26 20t-17 42q0 31 52 113q-77 51 -77 156 q0 99 66 152t174 53q67 0 118 -24l172 4v-80l-82 -14q0 -2 5 -14t9 -29t3 -36q0 -105 -65 -155t-175 -50q-11 0 -23 1t-20 3t-8 1l-4 -67h148q96 0 148 -40t52 -115q0 -86 -70 -138t-210 -52q-126 0 -192 33t-66 112z"/>
<glyph glyph-name="h" horiz-adv-x="667" unicode="h" d="M25 767l227 8v-293q82 68 168 68q75 0 115 -48t40 -132v-265l70 -25v-80h-270v80l52 24v243q0 80 -66 80q-25 1 -52 -13t-42 -27l-15 -13v-269l53 -25v-80h-280v80l80 25v562l-80 20v80z"/>
<glyph glyph-name="i" horiz-adv-x="358" unicode="i" d="M96 705q0 41 26 65t60 25q84 0 84 -90q0 -43 -26 -67t-58 -24q-42 0 -64 24t-22 67zM35 532l227 8v-435l70 -25v-80h-297v80l80 25v327l-80 20v80z"/>
<glyph glyph-name="j" horiz-adv-x="319" unicode="j" d="M79 705q1 40 25 65t61 25q84 0 84 -90q-1 -39 -25 -65t-59 -26q-41 0 -63 24t-23 67zM29 -245l-76 7l12 93h52q44 1 63 25t19 74v478l-80 20v80l228 8v-527q0 -135 -48 -197t-170 -61z"/>
<glyph glyph-name="k" horiz-adv-x="635" unicode="k" d="M25 767l227 8v-438h65l69 106l-44 14v80l258 5v-85l-70 -13l-93 -133l112 -207l76 -24v-80h-185l-124 245h-64v-140l55 -25v-80h-282v80l80 25v562l-80 20v80z"/>
<glyph glyph-name="l" horiz-adv-x="358" unicode="l" d="M25 767l231 8v-670l95 -25v-80h-326v80l80 25v562l-80 20v80z"/>
<glyph glyph-name="m" horiz-adv-x="982" unicode="m" d="M892 370v-265l68 -25v-80h-268v80l53 25v235q1 42 -13 62t-45 20q-29 0 -57 -13t-40 -26l-14 -13v-265l52 -25v-80h-252v80l52 25v235q0 42 -13 62t-44 20q-29 0 -57 -13t-42 -26l-13 -13v-265l53 -25v-80h-277v80l77 25v328l-76 19v80l206 8l7 -71q10 9 27 23t63 36 t85 22q99 0 136 -86q15 15 35 31q20 15 63 35t83 20q75 0 113 -47t38 -133z"/>
<glyph glyph-name="n" horiz-adv-x="675" unicode="n" d="M35 532l207 8l7 -69q11 9 29 21t66 34t89 22q73 0 111 -48t38 -130v-265q13 -4 37 -13t33 -12v-80h-270v80l53 25v242q-1 35 -19 57t-49 23q-29 -1 -55 -15t-39 -28l-13 -14v-265l52 -25v-80h-277v80l77 25v327l-77 20v80z"/>
<glyph glyph-name="o" d="M300 435q-57 0 -83.5 -37t-26.5 -128q0 -86 25 -125.5t80 -39.5t81 39t26 131q0 81 -24.5 120.5t-77.5 39.5zM305 550q121 0 186.5 -70.5t65.5 -199.5q0 -134 -72.5 -212t-194.5 -78q-255 0 -255 275q0 134 73 209.5t197 75.5z" unicode="o"/>
<glyph glyph-name="p" horiz-adv-x="630" unicode="p" d="M247 377v-267q25 -15 78 -15q63 1 89 43t26 129q0 165 -100 165q-29 0 -52 -14t-32 -28zM100 432l-80 20v80l210 8l9 -56q7 7 21 18q14 12 52 30t75 18q102 0 155 -70t53 -195q-1 -143 -69 -219t-204 -76q-35 0 -75 10v-127l95 -23v-80h-320v80l78 23v559z"/>
<glyph glyph-name="q" d="M380 152v275q-28 8 -78 8q-115 0 -115 -170q-1 -79 23 -119t76 -39q28 -1 52 11t32 23zM527 -125l75 -25v-80h-317v80l95 25v169q-6 -6 -20 -15t-52 -24t-71 -15q-101 0 -153 70t-52 195q0 139 74 217t216 78q49 0 100 -6t78 -12l27 -6v-651z" unicode="q"/>
<glyph glyph-name="r" horiz-adv-x="490" unicode="r" d="M35 532l207 8l9 -69q8 9 22 22q15 13 51 35t66 22q24 0 46 -4t34 -10l10 -4l-8 -190h-87l-15 85q-26 0 -53 -14t-41 -28l-14 -14v-266l95 -25v-80h-322v80l80 25v327l-80 20v80z"/>
<glyph glyph-name="s" horiz-adv-x="491" unicode="s" d="M133 175l8 -70q33 -10 82 -10q79 0 79 54q0 23 -27 39.5t-66 28.5t-78 28.5t-66 50.5t-27 83q0 88 59 129.5t147 41.5q40 0 86.5 -7.5t73.5 -14.5l26 -8q-2 -50 -4 -150h-88l-15 65q-26 10 -66 10q-31 0 -49 -13.5t-18 -37.5q0 -23 27.5 -39t66 -28t77.5 -27.5 t66.5 -48.5t27.5 -81q0 -85 -62.5 -132.5t-167.5 -47.5q-42 0 -88 5.5t-71 10.5l-25 6v163h92z"/>
<glyph glyph-name="t" horiz-adv-x="437" unicode="t" d="M255 -10q-83 0 -114 54t-31 186v187h-93v95l93 13v138l147 27v-165h140v-108h-140v-226q0 -50 11 -70t42 -20q36 0 79 23l36 -72q-88 -62 -170 -62z"/>
<glyph glyph-name="u" horiz-adv-x="655" unicode="u" d="M89 169v265l-73 18v80l221 8v-343q0 -41 13 -61t43 -19q27 -1 57 13t46 28l15 14v262l-74 18v80l221 8v-435l76 -20v-78l-204 -7l-10 70q-4 -2 -10 -8t-25 -20t-39 -24t-48 -20q-28 -8 -55 -8q-75 0 -115 47t-39 132z"/>
<glyph glyph-name="v" horiz-adv-x="599" unicode="v" d="M302 150l88 292l-58 13v80l262 5v-85l-57 -13l-161 -442h-165l-158 439l-48 16v80l262 5v-85l-56 -10z"/>
<glyph glyph-name="w" horiz-adv-x="878" unicode="w" d="M509 545l109 -383l59 278l-61 15v80l256 5v-85l-53 -12l-133 -443h-153l-79 255l-18 78l-25 -109l-73 -224h-152l-136 441l-44 14v80l262 5v-85l-63 -12l66 -281l106 361z"/>
<glyph glyph-name="x" d="M405 535l167 5v-85l-62 -13l-115 -172l113 -170l74 -20v-80h-272v80l31 11l-53 88l-108 -179h-170v80l75 20l110 165l-121 177l-54 13v80l259 5v-85l-30 -6l52 -88z" unicode="x"/>
<glyph glyph-name="y" horiz-adv-x="611" unicode="y" d="M241 -1l-178 440l-53 16v80l267 5v-85l-56 -10l89 -280l85 277l-58 13v80l269 5v-85l-62 -13l-147 -410q-21 -60 -41 -100t-52 -84t-77 -66t-102 -22l-97 8l14 107h65q27 1 51 13t40 36t25 38q8 15 18 37z"/>
<glyph glyph-name="z" horiz-adv-x="517" unicode="z" d="M62 540h420v-93l-257 -342h153l19 90h88v-195h-435v92l261 343h-144l-17 -78h-88v183z"/>
<glyph glyph-name="braceleft" horiz-adv-x="404" unicode="{" d="M253 570v-105q-1 -69 -21 -110t-71 -60q92 -36 92 -142v-173q0 -60 25 -81t96 -21v-103h-67q-100 0 -141 49t-41 163v154q0 50 -21 77t-74 27v100q53 0 74 27t21 77v141q0 97 45 141t137 44h67v-103q-71 0 -96 -21t-25 -81z"/>
<glyph glyph-name="bar" horiz-adv-x="282" unicode="|" d="M200 -230h-118v985h118v-985z"/>
<glyph glyph-name="braceright" horiz-adv-x="409" unicode="}" d="M160 436v134q0 60 -24 81t-96 21v103h67q93 -1 137 -45t45 -140v-141q0 -50 21 -77t74 -27v-100q-53 0 -74 -27t-21 -77v-154q0 -114 -42 -163t-141 -49h-66v103q72 0 96 21t24 81v173q0 106 93 142q-93 36 -93 141z"/>
<glyph glyph-name="asciitilde" horiz-adv-x="626" unicode="~" d="M105 209l-62 51q3 5 7 13t19 28q15 19 32 35t45 29t58 13q44 0 108 -34t99 -33q24 -1 48 13t36 28l12 14l66 -50q-3 -5 -7 -13q-4 -9 -20 -29t-32 -36q-17 -16 -44 -29t-55 -13q-43 0 -113 34t-104 33q-24 1 -47 -13t-35 -28z"/>
<glyph glyph-name="nbsp" horiz-adv-x="235" unicode=" "/>
<glyph glyph-name="exclamdown" horiz-adv-x="337" unicode="¡" d="M92 -221l18 504l120 5l19 -509h-157zM252 466q0 -42 -26 -66t-60 -24q-40 0 -62 24t-22 66t26 66t61 25q83 0 83 -91z"/>
<glyph glyph-name="cent" horiz-adv-x="510" unicode="¢" d="M331 0h-108v110q-89 16 -137 80t-48 163q0 102 48 169t137 86v97h108v-91q31 -4 65 -12t52 -15l17 -7l-5 -152h-85l-14 69q-29 8 -64 8q-112 0 -112 -133q0 -157 119 -157q15 1 30 3q16 2 26 5t24 9t19 10q7 4 19 10q12 8 14 9l49 -78q-70 -62 -154 -75v-108z"/>
<glyph glyph-name="sterling" horiz-adv-x="625" unicode="£" d="M60 0v87l50 18q29 9 38 31t9 71q0 10 -5 113h-92v93l85 14q-3 42 -3 83q0 98 52 152t161 55q57 -1 110 -9t77 -17l25 -9v-162h-90l-20 74q-37 6 -85 6q-82 0 -82 -88v-19q0 -23 2 -63h144v-110h-136q5 -58 5 -98q0 -72 -37 -105h186l23 103h93v-220h-510z"/>
<glyph glyph-name="currency" horiz-adv-x="624" unicode="¤" d="M227 298q0 -109 87 -109q88 0 88 109q0 105 -88 105q-87 0 -87 -105zM105 296q0 58 26 104l-79 80l74 80l80 -80q53 30 111 30q56 0 104 -25l77 76l74 -80l-74 -74q25 -47 25 -105q0 -61 -28 -111l78 -77l-75 -79l-79 78q-48 -28 -107 -28q-66 0 -111 27l-75 -75l-75 80 l76 75q-22 47 -22 104z"/>
<glyph glyph-name="yen" horiz-adv-x="672" unicode="¥" d="M182 0v87l75 20v56h-173v90h500v-90h-172v-56l75 -20v-87h-305zM84 313v90h94l-102 186l-66 28v83l282 5v-88l-51 -21l101 -211l106 210l-56 22v83l270 5v-88l-70 -27l-103 -187h95v-90h-500z"/>
<glyph glyph-name="brokenbar" horiz-adv-x="297" unicode="¦" d="M205 -265h-118v410h118v-410zM205 365h-118v400h118v-400z"/>
<glyph glyph-name="section" horiz-adv-x="534" unicode="§" d="M188 366q0 -28 20 -50t68 -54q49 -32 65 -46q18 22 18 56q1 28 -19 50t-70 54t-65 45q-17 -23 -17 -55zM172 52l14 -88q21 -6 51 -6q37 0 57 18t20 49q0 32 -26 60t-63 52t-74 51q-37 26 -63 68t-26 93q0 97 70 148q-30 48 -30 107q0 81 56 132t145 51q39 1 78 -7t58 -16 l19 -8l-4 -165h-79l-17 86q-25 6 -47 6q-37 0 -57 -19t-21 -49q0 -33 26 -62t63 -53q38 -24 74 -52t62 -68q26 -41 26 -92q0 -95 -70 -146q30 -47 30 -102q0 -84 -56 -136t-145 -52q-37 0 -76 7t-59 15l-20 7l2 171h82z"/>
<glyph glyph-name="dieresis" horiz-adv-x="544" unicode="¨" d="M308 712q0 35 22 56.5t52 21.5q72 0 72 -78q0 -36 -21.5 -57t-52.5 -21q-72 0 -72 78zM90 712q0 35 21.5 56.5t52.5 21.5q35 0 53.5 -20.5t18.5 -57.5q0 -36 -21.5 -57t-52.5 -21q-72 0 -72 78z"/>
<glyph glyph-name="copyright" horiz-adv-x="823" unicode="©" d="M523 273l37 -57q-77 -64 -152 -64q-84 0 -134 50t-50 140q0 97 52 154t143 57q28 1 60 -7t51 -16l18 -7l-3 -112h-69l-11 55q-25 6 -48 6q-83 0 -83 -117q0 -120 87 -120q28 1 57 13t45 25zM139 350q0 -123 73 -199t194 -76q122 1 200 77t77 198q1 121 -77 198t-200 77 q-121 -1 -194 -77t-73 -198zM37 345q1 161 107 267t267 107q162 0 268 -102t106 -262t-111 -267t-273 -107q-161 0 -263 101t-101 263z"/>
<glyph glyph-name="ordfeminine" horiz-adv-x="468" unicode="ª" d="M164 439q0 -16 11 -26t29 -10q16 1 33 9t27 16l9 9v47h-39q-70 0 -70 -45zM439 328l-139 -6l-14 50l-16 -16t-40 -25q-30 -16 -61 -16q-53 0 -83 30t-30 86q0 118 171 118h46v36q1 22 -13 34t-37 12q-15 -1 -31 -3t-23 -4l-8 -2l-9 -43h-71l-6 109q95 29 163 29 q82 1 115 -33t33 -110v-168l53 -12v-66zM66 135v100h373v-100h-373z"/>
<glyph glyph-name="guillemotleft" horiz-adv-x="599" unicode="«" d="M181 265l109 -160l-83 -56l-152 177v77l152 177l83 -55zM431 265l113 -160l-83 -56l-156 177v77l156 177l83 -55z"/>
<glyph glyph-name="logicalnot" horiz-adv-x="642" unicode="¬" d="M60 260v115h527v-295h-127v180h-400z"/>
<glyph glyph-name="registered" horiz-adv-x="723" unicode="®" d="M333 556v-80h26q21 0 36 11t15 29q0 40 -44 40h-33zM366 347v-45h-144v45l34 12v198l-34 14v42l143 2h3q36 0 62 -10t42 -31t16 -50q0 -58 -53 -84q8 -5 17 -22l31 -59l33 -12v-45h-90l-41 91q-8 18 -14 24t-15 6h-23v-64zM143 455q-1 -101 57 -163t157 -61q100 0 162 62 t62 162q0 99 -62 161t-162 62q-99 0 -157 -61t-57 -162zM45 449q1 137 91 227t226 90t226 -86t90 -220q0 -136 -94 -226t-233 -91q-135 0 -221 85t-85 221z"/>
<glyph glyph-name="macron" horiz-adv-x="350" unicode="¯" d="M42 640v107h265v-107h-265z"/>
<glyph glyph-name="degree" horiz-adv-x="426" unicode="°" d="M145 584q-1 -36 17 -56t51 -20t51 20t17 56q-1 32 -19 50t-49 18t-49 -18t-19 -50zM45 580q0 72 47 116t121 45q74 -1 121 -43t47 -113q0 -76 -47 -121t-121 -45q-75 0 -121 43t-47 118z"/>
<glyph glyph-name="plusminus" horiz-adv-x="622" unicode="±" d="M52 -36v114h518v-114h-518zM52 288v117h193v147h133v-147h192v-117h-192v-151h-133v151h-193z"/>
<glyph glyph-name="twosuperior" horiz-adv-x="404" unicode="²" d="M33 380q127 97 154 125q38 40 38 74q0 39 -51 39q-12 0 -22 -2t-16 -4l-5 -1l-7 -53h-85l-3 132q77 25 148 25q82 1 130 -29t47 -91q0 -57 -34 -99t-123 -111h161v-105h-332v100z"/>
<glyph glyph-name="threesuperior" horiz-adv-x="395" unicode="³" d="M352 604q0 -38 -22 -64t-59 -36q39 -8 65 -34t26 -63q0 -67 -54 -101t-136 -34q-36 0 -74 10t-60 18l-21 10l27 84q62 -27 119 -27q31 1 49 15t19 32q0 45 -73 45h-54v75h55q68 0 68 48q0 40 -55 40l-53 -6l-5 -42h-82l-3 118q86 23 155 23q80 -1 124 -29t44 -82z"/>
<glyph glyph-name="acute" horiz-adv-x="418" unicode="´" d="M346 740l-227 -113l-47 80l216 141z"/>
<glyph glyph-name="mu" horiz-adv-x="659" unicode="µ" d="M91 -235v667l-74 20v80l221 8v-349q0 -74 58 -74q28 -1 58 13t46 28l15 14v260l-74 20v80l221 8v-435l76 -20v-78l-203 -7l-10 71q-9 -9 -25 -23t-55 -36q-40 -22 -70 -22q-21 0 -37 6v-231h-147z"/>
<glyph glyph-name="mu" horiz-adv-x="659" unicode="μ" d="M91 -235v667l-74 20v80l221 8v-349q0 -74 58 -74q28 -1 58 13t46 28l15 14v260l-74 20v80l221 8v-435l76 -20v-78l-203 -7l-10 71q-9 -9 -25 -23t-55 -36q-40 -22 -70 -22q-21 0 -37 6v-231h-147z"/>
<glyph glyph-name="paragraph" horiz-adv-x="721" unicode="¶" d="M154 -170v83l82 22v338q-80 7 -133 69t-53 149q0 93 60 153t165 61h185l206 -8v-80l-80 -20v-767h-126v767h-105v-767h-201z"/>
<glyph glyph-name="periodcentered" horiz-adv-x="299" unicode="·" d="M61 306q0 44 25 69t65 25q86 0 86 -94q-1 -44 -25 -68t-64 -25q-87 0 -87 93z"/>
<glyph glyph-name="cedilla" horiz-adv-x="431" unicode="¸" d="M204 -167q22 1 36 11t14 27q0 43 -82 43v86h85v-43q40 -8 63 -31t23 -58q0 -45 -35 -73t-91 -28q-31 0 -61 8t-46 16l-15 8l31 55q40 -21 78 -21z"/>
<glyph glyph-name="onesuperior" horiz-adv-x="393" unicode="¹" d="M373 369v-89h-314v89h96v209l-91 -55l-49 83l158 99h109v-336h91z"/>
<glyph glyph-name="ordmasculine" horiz-adv-x="494" unicode="º" d="M58 135v100h378v-100h-378zM249 625q-74 0 -74 -111q0 -107 72 -107t72 113q0 105 -70 105zM254 717q88 -1 139 -51t51 -142t-56 -150t-146 -59t-141 49t-51 146q0 94 58 150t146 57z"/>
<glyph glyph-name="guillemotright" horiz-adv-x="599" unicode="»" d="M309 105l109 160l-109 160l83 55l152 -177v-77l-152 -177zM55 105l113 160l-113 160l83 55l156 -177v-77l-156 -177z"/>
<glyph glyph-name="onequarter" horiz-adv-x="1072" unicode="¼" d="M832 297l-95 -127h95v127zM392 369v-89h-303v89h96v209l-91 -55l-49 83l158 99h109v-336h80zM815 430l144 -17v-243h58v-93h-58v-77h-127v77h-200l-14 84zM255 0l408 705h145l-408 -705h-145z"/>
<glyph glyph-name="onehalf" horiz-adv-x="1073" unicode="½" d="M392 369v-89h-303v89h96v209l-91 -55l-49 83l158 99h109v-336h80zM683 100q126 97 150 122q42 42 42 78q0 38 -52 38q-11 0 -21 -2t-16 -4l-6 -1l-6 -53h-85l-3 132q76 25 147 25q83 1 131 -29t47 -91q0 -57 -34 -99t-123 -111h161v-105h-332v100zM256 0l408 705h145 l-408 -705h-145z"/>
<glyph glyph-name="threequarters" horiz-adv-x="1054" unicode="¾" d="M814 297l-95 -127h95v127zM374 596q0 -79 -81 -101q37 -6 65 -33t27 -64q1 -66 -53 -100t-137 -34q-35 0 -74 9t-60 19l-21 9l27 84q61 -26 118 -26q25 1 47 13t22 34q0 45 -74 45h-53v74h55q67 0 67 50q0 39 -54 39q-13 0 -27 -2t-20 -4l-7 -1l-5 -41h-81l-4 117 q87 23 156 23q81 0 124 -28t43 -82zM615 77l-14 84l196 269l144 -17v-243h58v-93h-58v-77h-127v77h-199zM238 0l408 705h145l-408 -705h-145z"/>
<glyph glyph-name="questiondown" horiz-adv-x="461" unicode="¿" d="M228 291l132 6q9 -65 9 -98q-1 -31 -27 -65t-57 -58t-57 -55q-26 -32 -27 -63q0 -66 90 -66q19 0 41 3t35 5l13 3l19 -104q-84 -24 -149 -24q-54 -1 -97 13t-73 50t-30 92q0 43 18 81t46 66q26 28 52 53q26 26 46 52q18 26 18 51zM370 466q0 -42 -26 -66t-60 -24 q-40 0 -62 24t-22 66t25 66t61 25q40 1 62 -23t22 -68z"/>
<glyph glyph-name="Agrave" horiz-adv-x="762" unicode="À" d="M375 529l-79 -237h154zM465 705l215 -595l70 -23v-87h-318v87l75 23l-24 75h-222l-25 -74l78 -24v-87h-302v87l73 23l220 592zM473 735l-227 112l58 109l215 -141z"/>
<glyph glyph-name="Aacute" horiz-adv-x="762" unicode="Á" d="M375 529l-79 -237h154zM465 705l215 -595l70 -23v-87h-318v87l75 23l-24 75h-222l-25 -74l78 -24v-87h-302v87l73 23l220 592zM579 847l-227 -112l-46 80l215 141z"/>
<glyph glyph-name="Acircumflex" horiz-adv-x="762" unicode="Â" d="M375 529l-79 -237h154zM465 705l215 -595l70 -23v-87h-318v87l75 23l-24 75h-222l-25 -74l78 -24v-87h-302v87l73 23l220 592zM385 840l-157 -98l-48 66l153 131l89 8l162 -139l-48 -66z"/>
<glyph glyph-name="Atilde" horiz-adv-x="762" unicode="Ã" d="M375 529l-79 -237h154zM465 705l215 -595l70 -23v-87h-318v87l75 23l-24 75h-222l-25 -74l78 -24v-87h-302v87l73 23l220 592zM252 795l-47 46q2 4 5 11.5t15 26.5t25 33.5t35 26.5t45 12q36 0 86.5 -23t79.5 -23q17 0 34.5 10.5t26.5 21.5l8 10l53 -46q-2 -4 -5.5 -11.5 t-15 -26.5t-25 -33t-35 -26t-44.5 -12q-36 0 -87.5 22t-80.5 22q-19 0 -37 -10.5t-27 -20.5z"/>
<glyph glyph-name="Adieresis" horiz-adv-x="762" unicode="Ä" d="M444 847q0 35 22 57t52 21q72 0 72 -78q0 -36 -22 -57t-52 -21q-72 0 -72 78zM226 847q0 35 22 57t52 21q36 -1 54 -21t18 -57q0 -36 -22 -57t-52 -21q-72 0 -72 78zM375 529l-79 -237h154zM465 705l215 -595l70 -23v-87h-318v87l75 23l-24 75h-222l-25 -74l78 -24v-87 h-302v87l73 23l220 592z"/>
<glyph glyph-name="Aring" horiz-adv-x="762" unicode="Å" d="M375 529l-79 -237h154zM465 705l215 -595l70 -23v-87h-318v87l75 23l-24 75h-222l-25 -74l78 -24v-87h-302v87l73 23l220 592zM334 807q0 -57 49 -57q21 0 34.5 15t13.5 43q0 57 -48 57q-22 0 -35.5 -15t-13.5 -43zM249 804q0 60 40.5 96.5t93.5 36.5t93 -34t40 -93 t-40.5 -96t-92.5 -37q-54 0 -94 34t-40 93z"/>
<glyph glyph-name="AE" horiz-adv-x="984" unicode="Æ" d="M489 300v287h-14l-132 -287h146zM644 587v-167h202v-110h-202v-193h177l23 85h92v-202h-521v87l74 25v80h-193l-40 -84l62 -21v-87h-298v87l82 25l231 477l-85 28v83l191 5h485v-195h-93l-25 77h-162z"/>
<glyph glyph-name="Ccedilla" horiz-adv-x="652" unicode="Ç" d="M567 187l55 -90q-4 -3 -10 -9t-27 -22t-43 -29t-58 -26q-35 -13 -71 -19v-36q85 -17 85 -90q0 -44 -36 -72t-90 -28q-30 0 -62 8t-47 18l-16 8l32 56q42 -23 82 -23q21 0 33 10t13 27q0 43 -82 43v77q-137 9 -211 99t-74 253q0 175 91 275t246 100q54 1 112 -11t89 -24 l32 -12l-5 -190h-98l-23 96q-47 16 -112 16q-165 0 -165 -245q0 -230 170 -230q43 -1 91 17t74 36z"/>
<glyph glyph-name="Egrave" horiz-adv-x="625" unicode="È" d="M386 735l-227 112l58 109l216 -141zM285 587v-167h202v-110h-202v-193h177l23 83h92v-200h-522v87l75 25v475l-75 30v83l230 5h280v-193h-93l-25 75h-162z"/>
<glyph glyph-name="Eacute" horiz-adv-x="627" unicode="É" d="M285 587v-167h202v-110h-202v-193h177l23 83h92v-200h-522v87l75 25v475l-75 30v83l230 5h280v-193h-93l-25 75h-162zM490 848l-227 -113l-47 80l216 141z"/>
<glyph glyph-name="Ecircumflex" horiz-adv-x="627" unicode="Ê" d="M342 840l-157 -98l-48 66l153 131l89 8l162 -139l-48 -66zM285 587v-167h202v-110h-202v-193h177l23 83h92v-200h-522v87l75 25v475l-75 30v83l230 5h280v-193h-93l-25 75h-162z"/>
<glyph glyph-name="Edieresis" horiz-adv-x="627" unicode="Ë" d="M285 587v-167h202v-110h-202v-193h177l23 83h92v-200h-522v87l75 25v475l-75 30v83l230 5h280v-193h-93l-25 75h-162zM363 848q0 35 22 56.5t52 21.5q72 0 72 -78q0 -36 -21.5 -57t-52.5 -21q-72 0 -72 78zM145 848q0 35 21.5 56.5t52.5 21.5q35 0 53.5 -20.5t18.5 -57.5 q0 -36 -21.5 -57t-52.5 -21q-72 0 -72 78z"/>
<glyph glyph-name="Igrave" horiz-adv-x="370" unicode="Ì" d="M236 735l-227 112l58 109l216 -141zM330 87v-87h-305v87l75 25v475l-75 30v83l305 5v-88l-75 -30v-475z"/>
<glyph glyph-name="Iacute" horiz-adv-x="400" unicode="Í" d="M365 848l-227 -113l-47 80l216 141zM345 87v-87h-305v87l75 25v475l-75 30v83l305 5v-88l-75 -30v-475z"/>
<glyph glyph-name="Icircumflex" horiz-adv-x="449" unicode="Î" d="M225 840l-157 -98l-48 66l153 131l89 8l162 -139l-48 -66zM378 87v-87h-305v87l75 25v475l-75 30v83l305 5v-88l-75 -30v-475z"/>
<glyph glyph-name="Idieresis" horiz-adv-x="404" unicode="Ï" d="M354 87v-87h-305v87l75 25v475l-75 30v83l305 5v-88l-75 -30v-475zM234 847q0 35 22 57t52 21q72 0 72 -78q0 -36 -22 -57t-52 -21q-72 0 -72 78zM26 847q0 35 22 57t52 21q36 -1 54 -21t18 -57q0 -36 -22 -57t-52 -21q-72 0 -72 78z"/>
<glyph glyph-name="Eth" horiz-adv-x="761" unicode="Ð" d="M294 587v-165h121v-110h-121v-195h87q79 -1 121 55t42 185q0 122 -40 176t-115 54h-95zM57 312v110h83v165l-90 30v83l245 5h99q151 0 234 -88t83 -255q0 -168 -90 -265t-242 -97h-329v87l90 25v200h-83z"/>
<glyph glyph-name="Ntilde" horiz-adv-x="785" unicode="Ñ" d="M325 87v-87h-290v87l75 25v475l-75 30v83l240 5l270 -462v344l-73 30v83l285 5v-88l-75 -30v-587h-167l-268 453v-341zM235 772l-48 39q2 3 5 11t15 27t25 33t35 27q22 12 45 12q36 0 90 -23t84 -23q16 1 34 11t26 20l9 11l55 -42q-2 -4 -6 -11t-18 -25t-28 -32t-37 -25 t-46 -11q-35 -1 -87 19t-81 20q-19 0 -37 -10t-26 -18z"/>
<glyph glyph-name="Ograve" horiz-adv-x="755" unicode="Ò" d="M436 735l-227 112l58 109l216 -141zM380 592q-78 0 -118 -56t-40 -184q0 -124 36 -182t112 -58q78 0 120 58t42 187q0 123 -38 179t-114 56zM385 717q151 1 233 -93t82 -262q0 -169 -92 -272t-243 -103q-150 0 -230 92t-80 268q1 172 89 271t241 99z"/>
<glyph glyph-name="Oacute" horiz-adv-x="755" unicode="Ó" d="M380 592q-78 0 -118 -55.5t-40 -184.5q0 -123 36.5 -181.5t111.5 -58.5q79 0 120.5 57.5t41.5 187.5q0 122 -38 178.5t-114 56.5zM385 717q150 0 232.5 -93.5t82.5 -261.5q0 -169 -92.5 -272t-242.5 -103t-230 92t-80 268q0 172 88.5 271t241.5 99zM531 848l-227 -113 l-47 80l216 141z"/>
<glyph glyph-name="Ocircumflex" horiz-adv-x="755" unicode="Ô" d="M385 840l-157 -98l-48 66l153 131l89 8l162 -139l-48 -66zM380 592q-78 0 -118 -56t-40 -184q0 -124 36 -182t112 -58q78 0 120 58t42 187q0 123 -38 179t-114 56zM385 717q151 1 233 -93t82 -262q0 -169 -92 -272t-243 -103q-150 0 -230 92t-80 268q1 172 89 271t241 99 z"/>
<glyph glyph-name="Otilde" horiz-adv-x="755" unicode="Õ" d="M380 592q-78 0 -118 -56t-40 -184q0 -124 36 -182t112 -58q78 0 120 58t42 187q0 123 -38 179t-114 56zM385 717q151 1 233 -93t82 -262q0 -169 -92 -272t-243 -103q-150 0 -230 92t-80 268q1 172 89 271t241 99zM215 777l-48 39q2 4 5 12t15 26q12 20 25 34t35 26t45 12 q36 0 90 -23t84 -23q16 0 34 10t26 22l9 10l55 -42q-2 -4 -6 -11t-18 -25t-28 -32t-37 -25t-46 -11q-35 0 -87 20t-81 19q-19 1 -37 -9t-26 -20z"/>
<glyph glyph-name="Odieresis" horiz-adv-x="755" unicode="Ö" d="M412 847q0 35 22 57t52 21q72 0 72 -78q0 -36 -22 -57t-52 -21q-72 0 -72 78zM194 847q0 35 22 57t52 21q36 -1 54 -21t18 -57q0 -36 -22 -57t-52 -21q-72 0 -72 78zM380 592q-78 0 -118 -56t-40 -184q0 -124 36 -182t112 -58q78 0 120 58t42 187q0 123 -38 179t-114 56z M385 717q151 1 233 -93t82 -262q0 -169 -92 -272t-243 -103q-150 0 -230 92t-80 268q1 172 89 271t241 99z"/>
<glyph glyph-name="multiply" horiz-adv-x="613" unicode="×" d="M53 439l84 85l169 -170l170 170l84 -85l-169 -169l169 -169l-84 -85l-170 170l-169 -170l-84 85l169 169z"/>
<glyph glyph-name="Oslash" horiz-adv-x="770" unicode="Ø" d="M540 357q0 70 -22 116l-210 -344q29 -17 69 -17q163 0 163 245zM387 592q-77 0 -117 -54t-40 -175q0 -86 21 -132q27 45 209 344q-32 17 -73 17zM163 -110l-89 51l78 128q-90 92 -90 278q0 172 89 271t241 99q78 0 139 -27l62 103l89 -51l-67 -109q92 -94 92 -271 q-1 -168 -93 -271t-242 -103q-76 0 -135 24z"/>
<glyph glyph-name="Ugrave" horiz-adv-x="782" unicode="Ù" d="M262 587v-317q0 -87 29 -123.5t101 -36.5q76 0 102 40.5t26 134.5v302l-78 30v83l308 5v-88l-75 -30v-302q0 -150 -66 -223.5t-222 -73.5q-148 0 -214 68t-66 214v317l-75 30v83l308 5v-88zM446 735l-227 112l58 109l216 -141z"/>
<glyph glyph-name="Uacute" horiz-adv-x="782" unicode="Ú" d="M586 848l-227 -113l-47 80l216 141zM262 587v-317q0 -88 29 -124t101 -36q76 0 102 40t26 135v302l-78 30v83l308 5v-88l-75 -30v-302q0 -149 -66 -223t-222 -74q-148 0 -214 68t-66 214v317l-75 30v83l308 5v-88z"/>
<glyph glyph-name="Ucircumflex" horiz-adv-x="782" unicode="Û" d="M262 587v-317q0 -87 29 -123.5t101 -36.5q76 0 102 40.5t26 134.5v302l-78 30v83l308 5v-88l-75 -30v-302q0 -150 -66 -223.5t-222 -73.5q-148 0 -214 68t-66 214v317l-75 30v83l308 5v-88zM391 840l-157 -98l-48 66l153 131l89 8l162 -139l-48 -66z"/>
<glyph glyph-name="Udieresis" horiz-adv-x="782" unicode="Ü" d="M427 847q0 35 22 57t52 21q72 0 72 -78q1 -36 -21 -57t-53 -21q-72 0 -72 78zM209 847q-1 35 21 57t53 21q35 -1 53 -21t19 -57q1 -36 -21 -57t-53 -21q-72 0 -72 78zM262 587v-317q0 -88 29 -124t101 -36q76 0 102 40t26 135v302l-78 30v83l308 5v-88l-75 -30v-302 q0 -149 -66 -223t-222 -74q-148 0 -214 68t-66 214v317l-75 30v83l308 5v-88z"/>
<glyph glyph-name="Yacute" horiz-adv-x="667" unicode="Ý" d="M485 87v-87h-305v87l75 25v132l-183 346l-65 27v83l283 5v-88l-51 -21l100 -217l106 216l-55 22v83l270 5v-88l-69 -27l-181 -345v-133zM526 848l-227 -113l-47 80l216 141z"/>
<glyph glyph-name="Thorn" horiz-adv-x="644" unicode="Þ" d="M356 445h-81v-178h64q58 -1 90 23t32 70q-1 41 -29 63t-76 22zM365 87v-87h-335v87l90 25v475l-90 30v83l335 5v-88l-90 -30v-32h99q114 0 177 -48t63 -137q0 -108 -76 -159t-209 -51h-54v-48z"/>
<glyph glyph-name="germandbls" horiz-adv-x="787" unicode="ß" d="M152 522v48q0 98 66 158t177 59q120 1 186 -45t66 -124q1 -40 -17 -72t-40 -50t-38 -41q-18 -23 -18 -45q0 -26 24 -44t58 -32t68 -31t57 -51q24 -34 24 -80q0 -82 -61 -132t-158 -50q-36 0 -78 6t-68 10l-25 6v161h90l10 -67q27 -11 66 -11q72 0 72 54q0 23 -24 41 q-23 18 -57 32t-68 32t-58 53t-24 84q0 39 18 69t41 47q23 15 41 39t18 51q0 38 -31 59t-72 21q-45 -1 -71 -27t-26 -73v-577h-228v80l80 25v315h-100v87z"/>
<glyph glyph-name="agrave" d="M353 598l-242 147l68 104l223 -178zM181 162q0 -60 59 -60q24 0 50 14t42 30l15 14v67h-57q-58 1 -84 -15t-25 -50zM570 7l-198 -7l-18 65q-9 -9 -24 -21q-16 -12 -58 -33t-80 -21q-73 0 -114 41t-41 116q0 165 240 165h70v55q0 75 -77 75q-23 0 -45 -4t-33 -8l-10 -3 l-15 -65h-90l-7 148q121 40 217 40q114 0 161 -44t47 -154v-247l75 -18v-80z" unicode="à"/>
<glyph glyph-name="aacute" d="M437 745l-242 -147l-49 73l223 178zM181 162q0 -60 59 -60q24 0 50 14t42 30l15 14v67h-57q-58 1 -84 -15t-25 -50zM570 7l-198 -7l-18 65q-9 -9 -24 -21q-16 -12 -58 -33t-80 -21q-73 0 -114 41t-41 116q0 165 240 165h70v55q0 75 -77 75q-23 0 -45 -4t-33 -8l-10 -3 l-15 -65h-90l-7 148q121 40 217 40q114 0 161 -44t47 -154v-247l75 -18v-80z" unicode="á"/>
<glyph glyph-name="acircumflex" d="M287 724l-168 -120l-48 66l164 153l89 8l175 -161l-48 -66zM181 162q0 -60 59 -60q24 0 50 14t42 30l15 14v67h-57q-58 1 -84 -15t-25 -50zM570 7l-198 -7l-18 65q-9 -9 -24 -21q-16 -12 -58 -33t-80 -21q-73 0 -114 41t-41 116q0 165 240 165h70v55q0 75 -77 75 q-23 0 -45 -4t-33 -8l-10 -3l-15 -65h-90l-7 148q121 40 217 40q114 0 161 -44t47 -154v-247l75 -18v-80z" unicode="â"/>
<glyph glyph-name="atilde" d="M116 630l-47 46q2 4 5 12t15 26q12 20 25 34t35 26t45 12q36 0 86 -23t80 -23q16 0 34 10t26 22l9 10l53 -46l-6 -12t-14 -26q-12 -19 -26 -33t-34 -26q-22 -12 -45 -12q-35 0 -87 22t-81 22q-19 -1 -37 -11t-27 -20zM181 162q0 -60 59 -60q24 0 50 14t42 30l15 14v67 h-57q-58 1 -84 -15t-25 -50zM570 7l-198 -7l-18 65q-9 -9 -24 -21q-16 -12 -58 -33t-80 -21q-73 0 -114 41t-41 116q0 165 240 165h70v55q0 75 -77 75q-23 0 -45 -4t-33 -8l-10 -3l-15 -65h-90l-7 148q121 40 217 40q114 0 161 -44t47 -154v-247l75 -18v-80z" unicode="ã"/>
<glyph glyph-name="adieresis" d="M181 162q0 -60 59 -60q24 0 50.5 14.5t41.5 29.5l15 14v67h-57q-58 0 -83.5 -15.5t-25.5 -49.5zM570 7l-198 -7l-18 65q-9 -8 -24 -20.5t-57.5 -33.5t-80.5 -21q-73 0 -114 41t-41 116q0 165 240 165h70v55q0 75 -77 75q-23 0 -45 -4t-33 -8l-10 -3l-15 -65h-90l-7 148 q121 40 217 40q114 0 161 -44.5t47 -153.5v-247l75 -18v-80zM322 698q0 35 22 56.5t52 21.5q72 0 72 -78q0 -36 -21.5 -57t-52.5 -21q-72 0 -72 78zM104 698q0 35 21.5 56.5t52.5 21.5q35 0 53.5 -20.5t18.5 -57.5q0 -36 -21.5 -57t-52.5 -21q-72 0 -72 78z" unicode="ä"/>
<glyph glyph-name="aring" d="M181 162q0 -60 59 -60q24 0 50.5 14.5t41.5 29.5l15 14v67h-57q-58 0 -83.5 -15.5t-25.5 -49.5zM570 7l-198 -7l-18 65q-9 -8 -24 -20.5t-57.5 -33.5t-80.5 -21q-73 0 -114 41t-41 116q0 165 240 165h70v55q0 75 -77 75q-23 0 -45 -4t-33 -8l-10 -3l-15 -65h-90l-7 148 q121 40 217 40q114 0 161 -44.5t47 -153.5v-247l75 -18v-80zM247 707q0 -57 49 -57q21 0 34.5 15t13.5 43q0 57 -48 57q-22 0 -35.5 -15t-13.5 -43zM162 704q0 60 40.5 96.5t93.5 36.5t93 -34t40 -93t-40.5 -96t-92.5 -37q-54 0 -94 34t-40 93z" unicode="å"/>
<glyph glyph-name="ae" horiz-adv-x="863" unicode="æ" d="M597 433q-43 -1 -69 -29t-32 -79h183q0 108 -82 108zM180 162q0 -28 16 -44t44 -16q23 0 50 15t42 30l15 15v65h-57q-58 1 -84 -15t-26 -50zM827 238l-331 -3q4 -61 36 -95t85 -33q37 -1 79 11t64 24l23 12l44 -80q-12 -9 -33 -23q-22 -13 -82 -37t-115 -24 q-146 0 -208 100q-85 -100 -197 -100q-71 0 -113 42t-42 115q0 165 240 165h70v55q0 75 -77 75q-22 0 -44 -4t-33 -8l-11 -3l-15 -65h-90l-7 148q0 2 33 11t87 19t95 9q112 0 156 -58q67 59 166 59q108 0 167 -62t59 -172z"/>
<glyph glyph-name="ccedilla" horiz-adv-x="515" unicode="ç" d="M455 160l50 -85q-79 -68 -171 -81v-34q38 -8 62 -32t24 -58q0 -43 -36 -71t-89 -28q-30 0 -61 8t-47 16l-16 8l31 55q42 -21 82 -21q22 0 34 10t13 27q-1 20 -23 32t-60 12v75q-104 11 -161 81t-57 188q0 134 72 211t203 77q38 0 82 -8t69 -18l24 -9l-5 -163h-90l-14 72 q-29 8 -69 8q-56 0 -86 -38t-31 -112q-1 -85 31 -130t94 -45q20 -1 38 3t35 11t27 12t26 15t19 12z"/>
<glyph glyph-name="egrave" horiz-adv-x="557" unicode="è" d="M368 598l-242 147l68 104l223 -178zM292 433q-40 0 -66 -28t-32 -75h180q0 103 -82 103zM524 240l-332 -3q4 -62 36 -96t84 -34q37 -1 79 11t65 24l24 12l43 -80q-11 -9 -31 -23q-20 -13 -80 -37t-117 -24q-127 0 -193 70t-67 200q0 134 71 212t196 78q110 0 169 -63 t59 -172z"/>
<glyph glyph-name="eacute" horiz-adv-x="557" unicode="é" d="M459 745l-242 -147l-49 73l223 178zM292 433q-40 0 -66 -28t-32 -75h180q0 103 -82 103zM524 240l-332 -3q4 -62 36 -96t84 -34q37 -1 79 11t65 24l24 12l43 -80q-11 -9 -31 -23q-20 -13 -80 -37t-117 -24q-127 0 -193 70t-67 200q0 134 71 212t196 78q110 0 169 -63 t59 -172z"/>
<glyph glyph-name="ecircumflex" horiz-adv-x="557" unicode="ê" d="M290 724l-168 -120l-48 66l164 153l89 8l175 -161l-48 -66zM292 433q-40 0 -66 -28t-32 -75h180q0 103 -82 103zM524 240l-332 -3q4 -62 36 -96t84 -34q37 -1 79 11t65 24l24 12l43 -80q-11 -9 -31 -23q-20 -13 -80 -37t-117 -24q-127 0 -193 70t-67 200q0 134 71 212 t196 78q110 0 169 -63t59 -172z"/>
<glyph glyph-name="edieresis" horiz-adv-x="557" unicode="ë" d="M322 698q0 34 22 56t52 22q72 0 72 -78q0 -36 -22 -57t-52 -21q-72 0 -72 78zM104 698q0 34 22 56t52 22q36 0 54 -20t18 -58q0 -36 -22 -57t-52 -21q-72 0 -72 78zM292 433q-40 0 -66 -28t-32 -75h180q0 103 -82 103zM524 240l-332 -3q4 -62 36 -96t84 -34q37 -1 79 11 t65 24l24 12l43 -80q-11 -9 -31 -23q-20 -13 -80 -37t-117 -24q-127 0 -193 70t-67 200q0 134 71 212t196 78q110 0 169 -63t59 -172z"/>
<glyph glyph-name="igrave" horiz-adv-x="369" unicode="ì" d="M267 598l-242 147l68 104l223 -178zM46 532l227 8v-435l70 -25v-80h-297v80l80 25v327l-80 20v80z"/>
<glyph glyph-name="iacute" horiz-adv-x="358" unicode="í" d="M345 745l-242 -147l-49 73l223 178zM35 532l227 8v-435l70 -25v-80h-297v80l80 25v327l-80 20v80z"/>
<glyph glyph-name="icircumflex" horiz-adv-x="358" unicode="î" d="M35 532l227 8v-435l70 -25v-80h-297v80l80 25v327l-80 20v80zM180 724l-159 -120l-49 66l156 153l89 8l166 -161l-49 -66z"/>
<glyph glyph-name="idieresis" horiz-adv-x="358" unicode="ï" d="M35 532l227 8v-435l70 -25v-80h-297v80l80 25v327l-80 20v80zM207 698q0 34 22 56t52 22q72 0 72 -78q1 -36 -21 -57t-53 -21q-72 0 -72 78zM-1 698q-1 34 21 56t53 22q35 0 53 -20t19 -58q1 -36 -21 -57t-53 -21q-72 0 -72 78z"/>
<glyph glyph-name="eth" horiz-adv-x="595" unicode="ð" d="M287 390q-100 0 -100 -145q0 -143 95 -143q54 0 76 38t22 110q0 70 -20 105t-73 35zM115 702l46 87q78 -19 147 -61l105 61l58 -79l-81 -46q145 -143 145 -392q0 -128 -70 -206t-188 -78q-115 0 -180 64t-65 188q0 123 70 194t185 71q39 0 78 -22q-27 72 -78 120 l-117 -67l-58 79l88 50q-41 22 -85 37z"/>
<glyph glyph-name="ntilde" horiz-adv-x="677" unicode="ñ" d="M180 631l-47 46q2 3 5 11q2 8 14 27t26 33t34 26q22 12 46 12q36 0 86 -22t78 -23q16 1 34 11t28 20l9 11l53 -46q-2 -3 -6 -11t-14 -27q-12 -19 -26 -33t-35 -27q-22 -12 -45 -12q-36 1 -87 23t-80 22q-19 0 -37 -10t-28 -20zM30 532l215 8l6 -69q27 25 77 51t107 26 q72 0 111 -48t39 -130v-263l72 -27v-80h-272v80l52 27v240q1 36 -17 58t-50 22q-28 -1 -55 -15t-40 -28l-13 -14v-263l53 -27v-80h-285v80l85 27v325l-85 20v80z"/>
<glyph glyph-name="ograve" d="M383 598l-242 147l68 104l223 -178zM300 435q-58 0 -84 -37t-26 -128q0 -86 25 -126t80 -39q55 0 81 39t26 131q0 81 -24 121t-78 39zM305 550q121 0 187 -70t65 -200q-1 -134 -73 -212t-194 -78q-255 0 -255 275q0 133 73 209t197 76z" unicode="ò"/>
<glyph glyph-name="oacute" d="M454 745l-242 -147l-49 73l223 178zM300 435q-58 0 -84 -37t-26 -128q0 -86 25 -126t80 -39q55 0 81 39t26 131q0 81 -24 121t-78 39zM305 550q121 0 187 -70t65 -200q-1 -134 -73 -212t-194 -78q-255 0 -255 275q0 133 73 209t197 76z" unicode="ó"/>
<glyph glyph-name="ocircumflex" d="M301 724l-168 -120l-48 66l164 153l89 8l175 -161l-48 -66zM300 435q-58 0 -84 -37t-26 -128q0 -86 25 -126t80 -39q55 0 81 39t26 131q0 81 -24 121t-78 39zM305 550q121 0 187 -70t65 -200q-1 -134 -73 -212t-194 -78q-255 0 -255 275q0 133 73 209t197 76z" unicode="ô"/>
<glyph glyph-name="otilde" d="M300 435q-57 0 -83.5 -37t-26.5 -128q0 -86 25 -125.5t80 -39.5t81 39t26 131q0 81 -24.5 120.5t-77.5 39.5zM305 550q121 0 186.5 -70.5t65.5 -199.5q0 -134 -72.5 -212t-194.5 -78q-255 0 -255 275q0 134 73 209.5t197 75.5zM136 630l-47 46q2 4 5 11.5t15 26.5 t25 33.5t35 26.5t45 12q36 0 86.5 -23t79.5 -23q17 0 34.5 10.5t26.5 21.5l8 10l53 -46q-2 -4 -5.5 -11.5t-15 -26.5t-25 -33t-35 -26t-44.5 -12q-36 0 -87.5 22t-80.5 22q-19 0 -37 -10.5t-27 -20.5z" unicode="õ"/>
<glyph glyph-name="odieresis" d="M300 435q-57 0 -83.5 -37t-26.5 -128q0 -86 25 -125.5t80 -39.5t81 39t26 131q0 81 -24.5 120.5t-77.5 39.5zM305 550q121 0 186.5 -70.5t65.5 -199.5q0 -134 -72.5 -212t-194.5 -78q-255 0 -255 275q0 134 73 209.5t197 75.5zM332 698q0 35 22 56.5t52 21.5q72 0 72 -78 q0 -36 -21.5 -57t-52.5 -21q-72 0 -72 78zM114 698q0 35 21.5 56.5t52.5 21.5q35 0 53.5 -20.5t18.5 -57.5q0 -36 -21.5 -57t-52.5 -21q-72 0 -72 78z" unicode="ö"/>
<glyph glyph-name="divide" horiz-adv-x="630" unicode="÷" d="M52 208v115h525v-115h-525zM228 481q0 44 25 68t64 24q85 0 85 -92q0 -45 -24 -69t-64 -24q-86 0 -86 93zM228 51q0 44 25 68t64 24q85 0 85 -92q0 -45 -24 -69t-64 -24q-86 0 -86 93z"/>
<glyph glyph-name="oslash" horiz-adv-x="602" unicode="ø" d="M305 435q-58 0 -84 -38t-26 -128q0 -42 11 -73l138 231q-18 8 -39 8zM407 275q0 44 -11 70l-139 -232q16 -8 43 -8q56 0 82 40t25 130zM119 -117l-75 42l72 121q-76 67 -76 219q0 133 73 209t197 76q51 0 99 -16l65 109l75 -42l-65 -109q78 -70 78 -212q0 -134 -72 -212 t-195 -78q-51 0 -103 14z"/>
<glyph glyph-name="ugrave" horiz-adv-x="655" unicode="ù" d="M394 598l-242 147l68 104l223 -178zM89 169v265l-73 18v80l221 8v-343q0 -41 13 -61t43 -19q27 -1 57 13t46 28l15 14v262l-74 18v80l221 8v-435l76 -20v-78l-204 -7l-10 70q-4 -2 -10 -8t-25 -20t-39 -24t-48 -20q-28 -8 -55 -8q-75 0 -115 47t-39 132z"/>
<glyph glyph-name="uacute" horiz-adv-x="655" unicode="ú" d="M476 745l-242 -147l-49 73l223 178zM89 169v265l-73 18v80l221 8v-343q0 -41 13 -61t43 -19q27 -1 57 13t46 28l15 14v262l-74 18v80l221 8v-435l76 -20v-78l-204 -7l-10 70q-4 -2 -10 -8t-25 -20t-39 -24t-48 -20q-28 -8 -55 -8q-75 0 -115 47t-39 132z"/>
<glyph glyph-name="ucircumflex" horiz-adv-x="655" unicode="û" d="M320 724l-168 -120l-48 66l164 153l89 8l175 -161l-48 -66zM89 169v265l-73 18v80l221 8v-343q0 -41 13 -61t43 -19q27 -1 57 13t46 28l15 14v262l-74 18v80l221 8v-435l76 -20v-78l-204 -7l-10 70q-4 -2 -10 -8t-25 -20t-39 -24t-48 -20q-28 -8 -55 -8q-75 0 -115 47 t-39 132z"/>
<glyph glyph-name="udieresis" horiz-adv-x="655" unicode="ü" d="M350 698q0 34 22 56t52 22q72 0 72 -78q0 -36 -22 -57t-52 -21q-72 0 -72 78zM132 698q0 34 22 56t52 22q36 0 54 -20t18 -58q0 -36 -22 -57t-52 -21q-72 0 -72 78zM89 169v265l-73 18v80l221 8v-343q0 -41 13 -61t43 -19q27 -1 57 13t46 28l15 14v262l-74 18v80l221 8 v-435l76 -20v-78l-204 -7l-10 70q-4 -2 -10 -8t-25 -20t-39 -24t-48 -20q-28 -8 -55 -8q-75 0 -115 47t-39 132z"/>
<glyph glyph-name="yacute" horiz-adv-x="611" unicode="ý" d="M521 745l-242 -147l-49 73l223 178zM241 -1l-178 440l-53 16v80l267 5v-85l-56 -10l89 -280l85 277l-58 13v80l269 5v-85l-62 -13l-147 -410q-21 -60 -41 -100t-52 -84t-77 -66t-102 -22l-97 8l14 107h65q27 1 51 13t40 36t25 38q8 15 18 37z"/>
<glyph glyph-name="thorn" horiz-adv-x="615" unicode="þ" d="M255 385v-267q25 -13 76 -13q114 0 114 170q0 157 -98 157q-27 0 -50 -12t-33 -24zM25 767l230 8v-283q5 6 17 16t49 26t76 16q99 0 151 -71t52 -194q0 -141 -72 -218t-213 -77q-12 0 -27 2t-24 4l-9 2v-130l105 -23v-80h-333v80l78 23v799l-80 20v80z"/>
<glyph glyph-name="OE" horiz-adv-x="956" unicode="Œ" d="M459 117v470q-28 4 -71 4q-86 -1 -127 -53t-41 -186q0 -124 36 -182t114 -58q20 0 52 2t37 3zM614 310v-193h177l23 83h92v-200h-360q-23 0 -87 -5t-97 -5q-150 0 -230 91t-80 266q0 172 89 270t241 98q30 0 90 -5t87 -5h335v-193h-93l-25 75h-162v-167h202v-110h-202z "/>
<glyph glyph-name="oe" horiz-adv-x="930" unicode="œ" d="M662 433q-40 0 -66 -28t-32 -75h180q0 103 -82 103zM302 435q-56 0 -83 -37t-27 -128q0 -86 26 -126t79 -39q56 -1 83 39t27 131q0 160 -105 160zM305 550q119 0 186 -86q67 86 184 86q109 0 167 -63t58 -172l-6 -75l-332 -3q4 -62 36 -96t84 -34q36 1 68 9t62 22t38 16 l43 -80q-11 -9 -31 -23q-20 -13 -79 -37t-115 -24q-125 0 -188 87q-72 -87 -190 -87q-253 0 -253 275q0 133 73 209t195 76z"/>
<glyph glyph-name="Scaron" horiz-adv-x="605" unicode="Š" d="M162 217l15 -84q40 -21 98 -21q51 0 86 22t35 59q0 27 -25 47t-63 31t-81 29t-81 40t-63 64t-25 101q0 101 70 157t184 55q50 0 105 -10t85 -20l30 -10l-5 -182h-92l-25 85q-45 15 -88 15q-50 0 -78 -20t-28 -51q0 -27 25 -47q25 -19 63 -31t80 -30q44 -18 82 -39t62 -62 q25 -41 25 -96q1 -109 -75 -171t-195 -61q-50 -1 -106 9t-87 20l-30 9v192h102zM297 851l139 106l50 -60l-143 -147h-90l-153 147l56 60z"/>
<glyph glyph-name="scaron" horiz-adv-x="491" unicode="š" d="M133 175l8 -70q33 -10 82 -10q79 0 79 54q0 23 -27 39.5t-66 28.5t-78 28.5t-66 50.5t-27 83q0 88 59 129.5t147 41.5q40 0 86.5 -7.5t73.5 -14.5l26 -8q-2 -50 -4 -150h-88l-15 65q-26 10 -66 10q-31 0 -49 -13.5t-18 -37.5q0 -23 27.5 -39t66 -28t77.5 -27.5 t66.5 -48.5t27.5 -81q0 -85 -62.5 -132.5t-167.5 -47.5q-42 0 -88 5.5t-71 10.5l-25 6v163h92zM240 724l139 106l50 -60l-143 -147h-89l-153 147l55 60z"/>
<glyph glyph-name="Ydieresis" horiz-adv-x="667" unicode="Ÿ" d="M485 87v-87h-305v87l75 25v132l-183 346l-65 27v83l283 5v-88l-51 -21l100 -217l106 216l-55 22v83l270 5v-88l-69 -27l-181 -345v-133zM366 848q0 35 22 56.5t52 21.5q72 0 72 -78q0 -36 -21.5 -57t-52.5 -21q-72 0 -72 78zM148 848q0 35 21.5 56.5t52.5 21.5 q35 0 53.5 -20.5t18.5 -57.5q0 -36 -21.5 -57t-52.5 -21q-72 0 -72 78z"/>
<glyph glyph-name="circumflex" horiz-adv-x="544" unicode="ˆ" d="M275 733l-157 -98l-48 66l153 131l89 8l162 -139l-48 -66z"/>
<glyph glyph-name="caron" horiz-adv-x="515" unicode="ˇ" d="M261 724l139 106l50 -60l-143 -147h-89l-153 147l55 60z"/>
<glyph glyph-name="ring" horiz-adv-x="411" unicode="˚" d="M157 707q0 -57 49 -57q21 0 34.5 15t13.5 43q0 57 -48 57q-22 0 -35.5 -15t-13.5 -43zM72 704q0 60 40.5 96.5t93.5 36.5t93 -34t40 -93t-40.5 -96t-92.5 -37q-54 0 -94 34t-40 93z"/>
<glyph glyph-name="tilde" horiz-adv-x="568" unicode="˜" d="M127 630l-47 46q2 4 5 11.5t15 26.5t25 33.5t35 26.5t45 12q36 0 86.5 -23t79.5 -23q17 0 34.5 10.5t26.5 21.5l8 10l53 -46q-2 -4 -5.5 -11.5t-15 -26.5t-25 -33t-35 -26t-44.5 -12q-36 0 -87.5 22t-80.5 22q-19 0 -37 -10.5t-27 -20.5z"/>
<glyph glyph-name="pi" horiz-adv-x="690" unicode="π" d="M672 117l35 -70q-8 -5 -23 -15t-57 -26t-81 -16q-61 0 -100 44t-39 136v257h-160v-427h-147v430l-78 22v78l213 10h400v-88l-81 -20v-268q0 -63 50 -63q13 0 30 4t28 8z"/>
<glyph glyph-name="endash" horiz-adv-x="500" unicode="–" d="M0 267v118h500v-118h-500z"/>
<glyph glyph-name="emdash" horiz-adv-x="970" unicode="—" d="M0 267v118h970v-118h-970z"/>
<glyph glyph-name="quoteleft" horiz-adv-x="311" unicode="‘" d="M232 523q0 -41 -24 -65t-62 -24t-61 24t-23 69q0 112 138 260l63 -51q-60 -80 -60 -121q1 -11 15 -38t14 -54z"/>
<glyph glyph-name="quotesinglbase" horiz-adv-x="311" unicode="‚" d="M47 -158q60 80 60 120q-1 12 -15 39t-14 53q0 40 24 64t63 25q39 0 61 -24t22 -68q0 -112 -137 -261z"/>
<glyph glyph-name="quotedblleft" horiz-adv-x="543" unicode="“" d="M232 523q0 -41 -24 -65t-62 -24t-61 24t-23 69q0 112 138 260l63 -51q-60 -80 -60 -121q1 -11 15 -38t14 -54zM465 523q-1 -41 -25 -65t-62 -24t-60 24t-23 69q0 111 137 260l64 -51q-60 -80 -60 -121q0 -11 14 -38t15 -54z"/>
<glyph glyph-name="quotedblright" horiz-adv-x="543" unicode="”" d="M280 486q60 80 60 120q0 12 -14 39t-15 53q1 40 25 64t61 25q38 0 61 -24t23 -68q0 -113 -138 -261zM47 486q60 80 60 120q-1 12 -15 39t-14 53q0 40 24 64t63 25q39 0 61 -24t22 -68q0 -112 -137 -261z"/>
<glyph glyph-name="dagger" horiz-adv-x="515" unicode="†" d="M195 51l-16 392l78 -17l79 17l-16 -392l-63 -51zM35 515v95h165l-5 142l125 8l-7 -150h167v-95l-223 -34z"/>
<glyph glyph-name="daggerdbl" horiz-adv-x="515" unicode="‡" d="M81 361v99l176 -29l176 29v-99l-176 -42zM195 51l-9 235l71 -16l72 16l-9 -235l-63 -51zM35 515v95h165l-5 142l125 8l-7 -150h167v-95l-223 -34z"/>
<glyph glyph-name="ellipsis" horiz-adv-x="780" unicode="…" d="M557 78q-1 42 25 66t62 24q83 0 83 -90q0 -42 -25 -66t-61 -25q-41 -1 -63 23t-21 68zM305 78q-1 42 25 66t61 24q41 0 63 -24t21 -66q0 -42 -25 -66t-61 -25q-41 -1 -63 23t-21 68zM52 78q0 42 26 66t61 24q83 0 83 -90q0 -42 -25 -66t-61 -25q-40 -1 -62 23t-22 68z "/>
<glyph glyph-name="perthousand" horiz-adv-x="1313" unicode="‰" d="M634 169q0 -96 58 -96q61 0 61 99q0 95 -59 95q-60 0 -60 -98zM519 165q0 87 51 137t129 51q77 0 123 -46t46 -131q0 -86 -51 -138t-130 -52q-77 0 -123 44t-45 135zM170 533q0 -96 58 -96q61 0 61 99q0 95 -59 95q-60 0 -60 -98zM55 529q0 87 51 137t129 51 q77 0 123 -46t46 -131q0 -86 -51 -138t-130 -52q-77 0 -123 44t-45 135zM179 -8l418 720h145l-418 -720h-145zM1024 169q0 -96 58 -96q61 0 61 99q0 95 -59 95q-60 0 -60 -98zM909 165q0 87 51 137t129 51q77 0 123 -46t46 -131q0 -86 -51 -138t-130 -52q-77 0 -123 44 t-45 135z"/>
<glyph glyph-name="guilsinglleft" horiz-adv-x="339" unicode="‹" d="M176 265l113 -160l-83 -56l-156 177v77l156 177l83 -55z"/>
<glyph glyph-name="guilsinglright" horiz-adv-x="339" unicode="›" d="M55 105l113 160l-113 160l83 55l156 -177v-77l-156 -177z"/>
<glyph glyph-name="fraction" horiz-adv-x="614" unicode="⁄" d="M85 -74l-100 67l539 779l100 -67z"/>
<glyph glyph-name="Euro" horiz-adv-x="637" unicode="€" d="M27 221v90h430v-90h-192q30 -105 127 -105q38 0 78 14t61 28l21 15l55 -88q-4 -5 -11 -11t-31 -22t-50 -30q-25 -14 -65 -24t-80 -10q-69 0 -121 23t-81 61q-30 38 -44 74q-14 35 -22 75h-75zM473 580q-38 15 -93 15q-30 1 -54 -13t-36 -33t-20 -39t-10 -32l-2 -14h199 v-90h-430v90h72q9 50 29 92t52 80q34 38 86 60t119 21q47 -1 97 -11t78 -20l27 -11l-5 -165h-93z"/>
<glyph glyph-name="product" horiz-adv-x="735" unicode="∏" d="M252 -235h-142v830l-78 22v78l218 10h452v-88l-80 -22v-830h-142v827h-228v-827z"/>
<glyph glyph-name="summation" horiz-adv-x="614" unicode="∑" d="M32 -235v103l264 370l-269 365v102h532v-193h-93l-25 80h-242l255 -340l-267 -374h268l16 85h98v-198h-537z"/>
<glyph glyph-name="minus" horiz-adv-x="580" unicode="−" d="M50 230v117h480v-117h-480z"/>
<glyph glyph-name="radical" horiz-adv-x="697" unicode="√" d="M68 426l-58 16v83l182 5l118 -382l180 622l217 5v-84l-108 -18l-217 -673h-163z"/>
<glyph glyph-name="approxequal" horiz-adv-x="640" unicode="≈" d="M118 91l-63 44q3 5 7 13t19 28t32 36t45 29t58 13q44 0 108 -34t99 -34q25 0 49 14t36 28l12 13l65 -44q-3 -5 -7 -13t-20 -29t-32 -37q-17 -16 -44 -29t-55 -13q-43 0 -113 34t-104 34q-24 0 -47 -13t-34 -27zM118 286l-63 44q3 5 7 13q4 9 19 29t32 36t45 28 q28 13 58 13q44 0 108 -34t99 -34q25 -1 49 13t36 28l12 14l65 -44q-3 -5 -7 -13t-20 -29t-32 -37q-17 -16 -44 -29t-55 -13q-43 0 -113 34t-104 34q-24 1 -47 -13t-34 -27z"/>
<glyph glyph-name="notequal" horiz-adv-x="640" unicode="≠" d="M62 327v115h266l53 110h132l-53 -110h117v-115h-172l-47 -98h219v-115h-273l-55 -114h-132l55 114h-110v115h164l47 98h-211z"/>
<glyph glyph-name="lessequal" horiz-adv-x="582" unicode="≤" d="M192 364l345 -107v-122l-492 170v120l492 165v-123zM45 -25v119h492v-119h-492z"/>
<glyph glyph-name="greaterequal" horiz-adv-x="582" unicode="≥" d="M45 257l345 107l-345 103v123l492 -165v-120l-492 -170v122zM537 94v-119h-492v119h492z"/>
<glyph glyph-name="lozenge" horiz-adv-x="560" unicode="◊" d="M275 631l-117 -257l125 -274l116 257zM215 -45l-199 411l196 409h130l198 -410l-195 -410h-130z"/>
</font>
</defs>
</svg>
